<svg id="Layer_1" data-name="Layer 1" xmlns="http://www.w3.org/2000/svg" viewBox="0 0 1920 1164"><defs><style>.cls-1,.cls-10,.cls-11{fill:#fff;}.cls-2,.cls-22{fill:#f7931e;}.cls-15,.cls-3{fill:blue;}.cls-16,.cls-4{fill:red;}.cls-17,.cls-5{fill:gray;}.cls-20,.cls-6{fill:#009245;}.cls-21,.cls-7{fill:#8cc63f;}.cls-8{fill:#9e005d;}.cls-9{fill:#ed1e79;}.cls-10,.cls-17{font-size:28.78px;}.cls-10,.cls-11,.cls-15,.cls-16,.cls-17,.cls-20,.cls-21,.cls-22{font-family:HelveticaNeue-Bold, Helvetica Neue;font-weight:700;}.cls-11{font-size:31.17px;}.cls-12{fill:#f15a24;}.cls-13{letter-spacing:-0.02em;}.cls-14{letter-spacing:0em;}.cls-15,.cls-16,.cls-20,.cls-21,.cls-22{font-size:32.9px;}.cls-18,.cls-19,.cls-23,.cls-26{fill:none;stroke-miterlimit:10;}.cls-18{stroke:gray;}.cls-19{stroke:blue;}.cls-23{stroke:#009245;}.cls-24{letter-spacing:-0.02em;}.cls-25{letter-spacing:0em;}.cls-26{stroke:#f15a24;}</style></defs><title>ecosystem</title><rect class="cls-1" x="1452.87" y="274.04" width="201.01" height="201.01"/><path class="cls-2" d="M1651.38,276.54v196h-196v-196h196m5-5h-206v206h206v-206Z"/><rect class="cls-1" x="1716.06" y="274.04" width="201.01" height="201.01"/><path class="cls-2" d="M1914.57,276.54v196h-196v-196h196m5-5h-206v206h206v-206Z"/><rect class="cls-1" x="16.3" y="274.04" width="201.01" height="201.01"/><path class="cls-3" d="M214.81,276.54v196H18.8v-196h196m5-5H13.8v206h206v-206Z"/><rect class="cls-1" x="268.52" y="274.04" width="201.01" height="201.01"/><path class="cls-3" d="M467,276.54v196H271v-196H467m5-5H266v206H472v-206Z"/><rect class="cls-1" x="16.3" y="532.53" width="201.01" height="201.01"/><path class="cls-4" d="M214.81,535V731H18.8V535h196m5-5H13.8V736h206V530Z"/><rect class="cls-1" x="16.3" y="806.69" width="201.01" height="201.01"/><path class="cls-5" d="M214.81,809.19v196H18.8v-196h196m5-5H13.8v206h206v-206Z"/><rect class="cls-1" x="823.1" y="274.04" width="201.01" height="201.01"/><path class="cls-6" d="M1021.61,276.54v196h-196v-196h196m5-5h-206v206h206v-206Z"/><rect class="cls-1" x="823.1" y="532.53" width="201.01" height="201.01"/><path class="cls-7" d="M1021.61,535V731h-196V535h196m5-5h-206V736h206V530Z"/><rect class="cls-1" x="1086.29" y="532.53" width="201.01" height="201.01"/><path class="cls-7" d="M1284.8,535V731h-196V535h196m5-5h-206V736h206V530Z"/><rect class="cls-5" x="266.02" y="804.19" width="206.01" height="206.01"/><rect class="cls-8" x="518.24" y="530.03" width="206.01" height="206.01"/><rect class="cls-9" x="266.02" y="530.03" width="206.01" height="206.01"/><text class="cls-10" transform="translate(280.7 582.41)">Speckle<tspan x="0" y="34.54">Grasshopper</tspan></text><text class="cls-11" transform="translate(531.36 581.22)">Speckle<tspan x="0" y="37.41">Rhino*</tspan></text><rect class="cls-12" x="1450.37" y="530.03" width="206.01" height="206.01"/><text class="cls-11" transform="translate(1463.49 581.22)">Speckle<tspan class="cls-13"><tspan x="0" y="37.41">V</tspan><tspan class="cls-14" x="19.08" y="37.41">iewers*</tspan></tspan></text><text class="cls-15" transform="translate(282.87 325.24)">Speckle<tspan x="0" y="39.48">Account</tspan><tspan x="0" y="78.96">Manager</tspan></text><text class="cls-16" transform="translate(34.75 583.14)">Speckle<tspan x="0" y="39.48">Rhino</tspan><tspan x="0" y="78.96">Converter</tspan></text><text class="cls-15" transform="translate(30.83 319.8)">Speckle<tspan x="0" y="39.48">Common</tspan></text><text class="cls-10" transform="translate(280.7 856.56)">Speckle<tspan x="0" y="34.54">For X</tspan></text><text class="cls-17" transform="translate(34.75 857.29)">Speckle<tspan x="0" y="34.54">For X</tspan><tspan x="0" y="69.08">Converter</tspan></text><text class="cls-15" transform="translate(13.6 222.67)">.NET (C#)</text><line class="cls-18" x1="13.01" y1="769.72" x2="472.81" y2="769.72"/><line class="cls-18" x1="13.01" y1="502.62" x2="472.81" y2="502.62"/><line class="cls-19" x1="13.01" y1="247.26" x2="472.81" y2="247.26"/><text class="cls-20" transform="translate(837.63 319.8)">Speckle<tspan x="0" y="39.48">Server</tspan></text><text class="cls-21" transform="translate(837.63 578.29)">Speckle<tspan x="0" y="39.48">Sender*</tspan></text><text class="cls-21" transform="translate(1100.82 578.29)">Speckle<tspan x="0" y="39.48">Receiver*</tspan></text><text class="cls-22" transform="translate(1467.4 319.8)">Speckle<tspan x="0" y="39.48">Sender*</tspan></text><text class="cls-22" transform="translate(1730.59 319.8)">Speckle<tspan x="0" y="39.48">Receiver*</tspan></text><text class="cls-20" transform="translate(820.4 222.67)">NodeJS</text><line class="cls-23" x1="819.81" y1="247.26" x2="1297.59" y2="247.23"/><text class="cls-22" transform="translate(1450.95 222.67)">JS/B<tspan class="cls-24" x="75.01" y="0">r</tspan><tspan class="cls-25" x="87.21" y="0">owser</tspan></text><line class="cls-26" x1="1450.37" y1="247.26" x2="1920" y2="247.23"/></svg>