<svg id="Layer_1" data-name="Layer 1" xmlns="http://www.w3.org/2000/svg" viewBox="0 0 1920 418"><defs><style>.cls-1,.cls-12,.cls-5{fill:#fff;}.cls-11,.cls-2,.cls-6,.cls-7{fill:#ed1e79;}.cls-10,.cls-3,.cls-8,.cls-9{fill:#9e005d;}.cls-4{fill:#8cc63f;}.cls-5,.cls-6,.cls-9{font-size:28.81px;}.cls-10,.cls-11,.cls-12,.cls-5,.cls-6,.cls-7,.cls-8,.cls-9{font-family:HelveticaNeue-Bold, Helvetica Neue;font-weight:700;}.cls-7,.cls-8{font-size:26.91px;}.cls-10,.cls-11,.cls-12{font-size:32.93px;}</style></defs><title>flow</title><rect class="cls-1" x="561.12" y="122.17" width="201.21" height="201.21"/><path class="cls-2" d="M759.83,124.67V320.88H563.62V124.67H759.83m5-5H558.62V325.88H764.83V119.67Z"/><rect class="cls-1" x="1392.19" y="118.76" width="201.21" height="201.21"/><path class="cls-3" d="M1590.9,121.26V317.47H1394.69V121.26H1590.9m5-5H1389.69V322.47H1595.9V116.26Z"/><rect class="cls-4" x="860.03" y="116.3" width="206.21" height="206.21"/><rect class="cls-2" x="327.91" y="119.67" width="206.21" height="206.21"/><text class="cls-5" transform="translate(342.6 172.09)">Speckle<tspan x="0" y="34.57">Sender</tspan><tspan x="0" y="69.14">Client</tspan></text><path class="cls-2" d="M182.69,119.67h-12v5h12v-5Zm-24,0h-12v5h12v-5Zm-24,0h-12v5h12v-5Zm-24,0h-12v5h12v-5Zm-24,0h-12v5h12v-5Zm-24,0h-12v5h12v-5Zm-24,0h-12v5h12v-5Zm-24,0h-12v5h12v-5Zm-9.21,9.79h-5v12h5v-12Zm0,24h-5v12h5v-12Zm0,24h-5v12h5v-12Zm0,24h-5v12h5v-12Zm0,24h-5v12h5v-12Zm0,24h-5v12h5v-12Zm0,24h-5v12h5v-12Zm0,24h-5v12h5v-12Zm2.58,23.42H.48v.58h0v0h0v4.42H8.06v-5Zm24,0h-12v5h12v-5Zm24,0h-12v5h12v-5Zm24,0h-12v5h12v-5Zm24,0h-12v5h12v-5Zm24,0h-12v5h12v-5Zm24,0h-12v5h12v-5Zm24,0h-12v5h12v-5Zm24,0h-12v5h12v-5Zm6.63-12.37h-5v12h5v-12Zm0-24h-5v12h5v-12Zm0-24h-5v12h5v-12Zm0-24h-5v12h5v-12Zm0-24h-5v12h5v-12Zm0-24h-5v12h5v-12Zm0-24h-5v12h5v-12Zm0-24h-5v12h5v-12Zm0-20.84h-12v5h7v3.84h5v-8.84Z"/><text class="cls-6" transform="translate(15.18 172.09)">Data<tspan x="0" y="34.57">&amp;</tspan><tspan x="0" y="69.14">Geometry</tspan></text><rect class="cls-3" x="1160.12" y="116.26" width="206.21" height="206.21"/><text class="cls-5" transform="translate(1174.82 168.68)">Speckle<tspan x="0" y="34.57">Receiver</tspan><tspan x="0" y="69.14">Clients</tspan></text><text class="cls-7" transform="translate(579.57 171.19)">App Specific<tspan x="0" y="32.29">Speckle</tspan><tspan x="0" y="64.58">Converter</tspan></text><text class="cls-8" transform="translate(1410.65 164.37)">App Specific<tspan x="0" y="32.29">Speckle</tspan><tspan x="0" y="64.58">Converter</tspan></text><path class="cls-3" d="M1896,119.67h-12v5h12v-5Zm-24,0h-12v5h12v-5Zm-24,0h-12v5h12v-5Zm-24,0h-12v5h12v-5Zm-24,0h-12v5h12v-5Zm-24,0h-12v5h12v-5Zm-24,0h-12v5h12v-5Zm-24,0h-12v5h12v-5Zm-9.21,9.79h-5v12h5v-12Zm0,24h-5v12h5v-12Zm0,24h-5v12h5v-12Zm0,24h-5v12h5v-12Zm0,24h-5v12h5v-12Zm0,24h-5v12h5v-12Zm0,24h-5v12h5v-12Zm0,24h-5v12h5v-12Zm2.58,23.42h-7.58v.58h0v0h0v4.42h7.58v-5Zm24,0h-12v5h12v-5Zm24,0h-12v5h12v-5Zm24,0h-12v5h12v-5Zm24,0h-12v5h12v-5Zm24,0h-12v5h12v-5Zm24,0h-12v5h12v-5Zm24,0h-12v5h12v-5Zm24,0h-12v5h12v-5Zm6.63-12.37h-5v12h5v-12Zm0-24h-5v12h5v-12Zm0-24h-5v12h5v-12Zm0-24h-5v12h5v-12Zm0-24h-5v12h5v-12Zm0-24h-5v12h5v-12Zm0-24h-5v12h5v-12Zm0-24h-5v12h5v-12Zm0-20.84h-12v5h7v3.84h5v-8.84Z"/><text class="cls-9" transform="translate(1728.49 172.09)">Data<tspan x="0" y="34.57">&amp;</tspan><tspan x="0" y="69.14">Geometry</tspan></text><text class="cls-10" transform="translate(1713.51 100.34)">App X</text><text class="cls-11" transform="translate(0.2 100.34)">App Y</text><text class="cls-12" transform="translate(877.08 164.6)">Speckle<tspan x="0" y="39.52">Server</tspan></text><polyline class="cls-2" points="236.09 156.72 296.38 217.02 236.09 277.31"/><polyline class="cls-3" points="1625.38 153.31 1685.68 213.61 1625.38 273.9"/><polyline class="cls-4" points="784.08 156.72 844.37 217.02 784.08 277.31"/><polyline class="cls-4" points="1088.77 159 1149.06 219.29 1088.77 279.58"/></svg>